[Header]
FileType HTR
DataType HTRS
FileVersion 1
NumSegments 22
NumFrames 4
DataFrameRate 24
EulerRotationOrder ZYX
CalibrationUnits mm
RotationUnits Degrees
GlobalAxisofGravity Y
BoneLengthAxis Y
ScaleFactor 1.0
[SegmentNames&Hierarchy]
reference	GLOBAL
Hips	reference
Spine	Hips
Spine1	Spine
Neck	Spine1
Head	Neck
LeftShoulder	Spine1
LeftArm	LeftShoulder
LeftForeArm	LeftArm
LeftHand	LeftForeArm
RightShoulder	Spine1
RightArm	RightShoulder
RightForeArm	RightArm
RightHand	RightForeArm
LeftUpLeg	Hips
LeftLeg	LeftUpLeg
LeftFoot	LeftLeg
LeftToeBase	LeftFoot
RightUpLeg	Hips
RightLeg	RightUpLeg
RightFoot	RightLeg
RightToeBase	RightFoot
[BasePosition]
reference	0	0	0	0	0	0	1
Hips	0	0	0	0	0	0	1
Spine	0	0	0	0	-0	90	1
Spine1	0	0	0	0	0	0	1
Neck	0	0	0	-7.352430803	-7.352430803	90	1
Head	0	0	0	0	-0	90	1
LeftShoulder	0	0	0	0	0	0	1
LeftArm	0	0	0	0	0	0	1
LeftForeArm	0	0	0	0	0	0	1
LeftHand	0	0	0	0	0	0	1
RightShoulder	0	0	0	0	-0	180	1
RightArm	0	0	0	0	-0	180	1
RightForeArm	0	0	0	0	-0	180	1
RightHand	0	0	0	0	-0	180	1
LeftUpLeg	0	0	0	0	-0	-90	1
LeftLeg	0	0	0	0	-0	-90	1
LeftFoot	0	0	0	66.57150701	-66.57150701	-90	1
LeftToeBase	0	0	0	0	-90	0	1
RightUpLeg	0	0	0	0	-0	-90	1
RightLeg	0	0	0	0	-0	-90	1
RightFoot	0	0	0	66.57150701	-66.57150701	-90	1
RightToeBase	0	0	0	0	-90	0	1
[reference]
40	0	0	0	0	-0	0	1.0
41	0	0	0	0	-0	0	1.0
42	0	0	0	0	-0	0	1.0
43	0	0	0	0	-0	0	1.0
[Hips]
40	1.060596704	9.537818909	0.8892447352	11.42480278	-99.49868774	-4.012712479	1.0
41	1.081552148	10.43964005	0.8673518896	12.02457142	-96.266922	-4.87155962	1.0
42	1.201347828	10.98994732	0.8882842064	7.646118164	-95.09605408	-0.4877502918	1.0
43	1.50703001	11.16534615	0.9406254292	-2.424285889	-96.3156662	13.99501038	1.0
[Spine]
40	0	0.7478299737	0	-2.987541199	1.769429445	-89.18435669	1.0
41	0	0.7478299737	0	0.09243752062	0.4770006239	-89.34750366	1.0
42	0	0.7478299737	0	5.612101555	0.2523980141	-88.75502014	1.0
43	0	0.7478299737	0	8.463823318	0.8266015053	-88.5247879	1.0
[Spine1]
40	0	2.049309969	0	-2.504654884	0.5886256695	-0.6322828531	1.0
41	0	2.049309969	0	-8.194724083	0.1446731985	-0.02525839023	1.0
42	0	2.049309969	0	-9.861219406	0.4080382288	0.4813602567	1.0
43	0	2.049309969	0	-9.593387604	1.175838828	2.215399027	1.0
[Neck]
40	0	2.231709957	0	7.502948761	10.12149811	-87.46018982	1.0
41	0	2.231709957	0	23.09762001	8.157197952	-85.57551575	1.0
42	0	2.231709957	0	23.87417412	8.005009651	-85.5569458	1.0
43	0	2.231709957	0	23.82315826	8.015007019	-85.5581665	1.0
[Head]
40	0	1.413589954	0.1823999882	-10.81175423	3.162405968	-92.25077057	1.0
41	0	1.413589954	0.1823999882	-16.69093895	1.87015903	-93.87734985	1.0
42	0	1.413589954	0.1823999882	-17.06655502	1.743743896	-93.79441833	1.0
43	0	1.413589954	0.1823999882	-17.04187775	1.752048492	-93.79986572	1.0
[LeftShoulder]
40	0.3649300039	1.825889945	-0.04271000251	-9.460453987	-8.344099045	8.702469826	1.0
41	0.3649300039	1.825889945	-0.04271000251	-7.801689148	-10.27590656	2.715920448	1.0
42	0.3649300039	1.825889945	-0.04271000251	-11.55771065	-10.65607929	-0.2818302512	1.0
43	0.3649300039	1.825889945	-0.04271000251	-12.86275101	-11.67817497	-1.637243032	1.0
[LeftArm]
40	1.24003005	0	0	33.41919708	-7.645684242	-52.6572113	1.0
41	1.24003005	0	0	34.60752487	-8.001898766	-53.19068527	1.0
42	1.24003005	0	0	44.38169861	-5.90264225	-61.96505356	1.0
43	1.24003005	0	0	49.54454041	-5.670628548	-70.34811401	1.0
[LeftForeArm]
40	2.847419977	0	0	-122.2972107	-50.95716858	137.7740784	1.0
41	2.847419977	0	0	-133.7618408	-47.10990906	149.7332001	1.0
42	2.847419977	0	0	-125.9883804	-50.2472229	143.8579865	1.0
43	2.847419977	0	0	-112.2579803	-50.74663925	132.6544647	1.0
[LeftHand]
40	2.258270025	0	0	-21.41736984	-12.04806519	10.25686359	1.0
41	2.258270025	0	0	-18.4295578	-17.02809906	6.921522617	1.0
42	2.258270025	0	0	-17.36860847	-19.55143738	9.957253456	1.0
43	2.258270025	0	0	-19.28685951	-20.67858124	8.371436119	1.0
[RightShoulder]
40	-0.3646599948	1.825889945	-0.04271000251	-10.46669388	15.55450726	172.5348206	1.0
41	-0.3646599948	1.825889945	-0.04271000251	-7.071665764	16.33847237	178.5917816	1.0
42	-0.3646599948	1.825889945	-0.04271000251	-8.459981918	12.16152954	181.503479	1.0
43	-0.3646599948	1.825889945	-0.04271000251	-3.718648434	12.06595135	184.1903687	1.0
[RightArm]
40	-1.24003005	0	0	44.41249084	3.258330107	-115.9741898	1.0
41	-1.24003005	0	0	43.88053513	-0.5149667263	-117.6255341	1.0
42	-1.24003005	0	0	52.54616165	2.16174984	-112.2320709	1.0
43	-1.24003005	0	0	59.34344101	12.25671768	-109.3022232	1.0
[RightForeArm]
40	-2.847419977	0	0	-89.37121582	44.42977905	48.10366821	1.0
41	-2.847419977	0	0	-105.3095398	39.85186005	32.69062805	1.0
42	-2.847419977	0	0	-94.45800018	44.12284088	42.67829132	1.0
43	-2.847419977	0	0	-76.48252869	41.72907639	57.2956543	1.0
[RightHand]
40	-2.258270025	0	0	-4.861318111	4.994164944	164.2246552	1.0
41	-2.258270025	0	0	-4.100891113	6.264601707	164.7619476	1.0
42	-2.258270025	0	0	-3.264001846	8.345666885	163.7689056	1.0
43	-2.258270025	0	0	-8.116704941	7.274158478	159.6244354	1.0
[LeftUpLeg]
40	0.9119900465	0	0	-11.72728157	-8.421106339	93.69250488	1.0
41	0.9119900465	0	0	-20.75679588	-13.04218102	98.83738708	1.0
42	0.9119900465	0	0	-35.58338165	-9.33775425	103.9651184	1.0
43	0.9119900465	0	0	-55.17848587	0.9446560144	109.9783173	1.0
[LeftLeg]
40	0	-4.371409893	0	21.16749001	1.978304625	86.64750671	1.0
41	0	-4.371409893	0	40.95129776	7.565006733	79.87641144	1.0
42	0	-4.371409893	0	73.81316376	15.5018568	76.21334076	1.0
43	0	-4.371409893	0	101.047226	26.3876152	64.89176178	1.0
[LeftFoot]
40	0	-3.918009996	0	-68.28656006	112.5762939	-46.01691437	1.0
41	0	-3.918009996	0	-54.39095306	115.432991	-35.60852051	1.0
42	0	-3.918009996	0	-57.30921936	116.8066483	-33.23057556	1.0
43	0	-3.918009996	0	-53.86135101	129.1957245	-18.11504936	1.0
[LeftToeBase]
40	0	-0.5927900076	1.367989898	0	0	0	1.0
41	0	-0.5927900076	1.367989898	0	0	0	1.0
42	0	-0.5927900076	1.367989898	0	0	0	1.0
43	0	-0.5927900076	1.367989898	0	0	0	1.0
[RightUpLeg]
40	-0.9119900465	0	0	-7.566325665	-23.76891899	93.01753235	1.0
41	-0.9119900465	0	0	-10.91238689	-15.97802067	91.58937073	1.0
42	-0.9119900465	0	0	-26.20192909	-16.6438446	93.8881073	1.0
43	-0.9119900465	0	0	-49.94495392	-21.7316246	103.2672272	1.0
[RightLeg]
40	0	-4.371409893	0	10.08419132	-0.9846336842	83.9776001	1.0
41	0	-4.371409893	0	23.19639397	-1.316361308	83.56685638	1.0
42	0	-4.371409893	0	60.331604	2.052662849	78.137146	1.0
43	0	-4.371409893	0	94.54863739	14.47881889	73.22858429	1.0
[RightFoot]
40	0	-3.918009996	0	77.09249878	66.88308716	94.09341431	1.0
41	0	-3.918009996	0	83.21520233	62.59473419	95.50228119	1.0
42	0	-3.918009996	0	64.32778931	59.24160767	87.08090973	1.0
43	0	-3.918009996	0	51.00621033	62.71512604	85.53965759	1.0
[RightToeBase]
40	0	-0.5927900076	1.367989898	0	0	0	1.0
41	0	-0.5927900076	1.367989898	0	0	0	1.0
42	0	-0.5927900076	1.367989898	0	0	0	1.0
43	0	-0.5927900076	1.367989898	0	0	0	1.0
[EndOfFile]
